<?xml version="1.0" encoding="UTF-8" standalone="no"?>
<!-- Created with Inkscape (http://www.inkscape.org/) -->

<svg
   xmlns:osb="http://www.openswatchbook.org/uri/2009/osb"
   xmlns:dc="http://purl.org/dc/elements/1.1/"
   xmlns:cc="http://creativecommons.org/ns#"
   xmlns:rdf="http://www.w3.org/1999/02/22-rdf-syntax-ns#"
   xmlns:svg="http://www.w3.org/2000/svg"
   xmlns="http://www.w3.org/2000/svg"
   xmlns:sodipodi="http://sodipodi.sourceforge.net/DTD/sodipodi-0.dtd"
   xmlns:inkscape="http://www.inkscape.org/namespaces/inkscape"
   width="200"
   height="200"
   viewBox="0 0 52.916665 52.916668"
   version="1.1"
   id="svg8"
   inkscape:version="0.92.4 (5da689c313, 2019-01-14)"
   sodipodi:docname="favicon.svg"
   inkscape:export-filename="C:\Users\light\Documents\GitHub\gzhu-esit-course-record\themes\hexo-theme-icalm\source\assets\favicon.png"
   inkscape:export-xdpi="96"
   inkscape:export-ydpi="96">
  <defs
     id="defs2">
    <linearGradient
       id="linearGradient2461"
       osb:paint="solid">
      <stop
         style="stop-color:#000000;stop-opacity:1;"
         offset="0"
         id="stop2459" />
    </linearGradient>
  </defs>
  <sodipodi:namedview
     id="base"
     pagecolor="#ffffff"
     bordercolor="#666666"
     borderopacity="1.0"
     inkscape:pageopacity="0.0"
     inkscape:pageshadow="2"
     inkscape:zoom="2.8"
     inkscape:cx="37.599369"
     inkscape:cy="114.72139"
     inkscape:document-units="mm"
     inkscape:current-layer="layer1"
     showgrid="false"
     units="px"
     inkscape:window-width="1920"
     inkscape:window-height="1000"
     inkscape:window-x="-11"
     inkscape:window-y="-11"
     inkscape:window-maximized="1" />
  <metadata
     id="metadata5">
    <rdf:RDF>
      <cc:Work
         rdf:about="">
        <dc:format>image/svg+xml</dc:format>
        <dc:type
           rdf:resource="http://purl.org/dc/dcmitype/StillImage" />
        <dc:title />
      </cc:Work>
    </rdf:RDF>
  </metadata>
  <g
     inkscape:label="Layer 1"
     inkscape:groupmode="layer"
     id="layer1"
     transform="translate(0,-244.08332)">
    <g
       aria-label="E"
       transform="matrix(1.1297905,0,0,1.0216942,-9.622854,25.48189)"
       style="font-style:normal;font-variant:normal;font-weight:900;font-stretch:normal;font-size:25.39999962px;line-height:1.25;font-family:'Source Code Pro';-inkscape-font-specification:'Source Code Pro Heavy';letter-spacing:0px;word-spacing:0px;fill:#000000;fill-opacity:1;stroke:none;stroke-width:0.57323968"
       id="text2512">
      <path
         inkscape:connector-curvature="0"
         d="m 15.848553,235.27911 v -16.51 h 11.2268 v 3.6576 h -6.858 v 2.5908 h 5.842 v 3.6576 h -5.842 v 2.9464 h 7.112 v 3.6576 z"
         style="font-style:normal;font-variant:normal;font-weight:900;font-stretch:normal;font-size:25.39999962px;font-family:'Source Code Pro';-inkscape-font-specification:'Source Code Pro Heavy';fill:#000000;stroke-width:0.57323968"
         id="path2577" />
    </g>
    <g
       aria-label="T"
       transform="matrix(0.98344839,0,0,1.1418864,-22.087522,-17.969092)"
       style="font-style:normal;font-variant:normal;font-weight:900;font-stretch:normal;font-size:25.39999962px;line-height:1.25;font-family:'Source Code Pro';-inkscape-font-specification:'Source Code Pro Heavy';letter-spacing:0px;word-spacing:0px;fill:#000000;fill-opacity:1;stroke:none;stroke-width:0.57323968"
       id="text2512-5">
      <path
         inkscape:connector-curvature="0"
         d="m 60.632812,272.52695 v -12.8524 h -4.7498 v -3.6576 h 13.8684 v 3.6576 h -4.7498 v 12.8524 z"
         style="font-style:normal;font-variant:normal;font-weight:900;font-stretch:normal;font-size:25.39999962px;font-family:'Source Code Pro';-inkscape-font-specification:'Source Code Pro Heavy';fill:#000000;stroke-width:0.57323968"
         id="path2574" />
    </g>
    <g
       aria-label="i"
       transform="matrix(0.88070613,0,0,0.98140708,-4.1186118,24.573353)"
       style="font-style:normal;font-variant:normal;font-weight:900;font-stretch:normal;font-size:25.39999962px;line-height:1.25;font-family:'Source Code Pro';-inkscape-font-specification:'Source Code Pro Heavy';letter-spacing:0px;word-spacing:0px;fill:#000000;fill-opacity:1;stroke:none;stroke-width:0.57323968"
       id="text2512-5-5">
      <path
         inkscape:connector-curvature="0"
         d="m 20.109337,273.78754 v -9.2964 h -4.826 v -3.4036 h 9.1948 v 12.7 z m 2.032,-14.4272 q -1.2192,0 -2.0066,-0.6858 -0.7874,-0.7112 -0.7874,-1.8542 0,-1.143 0.7874,-1.8542 0.7874,-0.7366 2.0066,-0.7366 1.2192,0 2.0066,0.7366 0.7874,0.7112 0.7874,1.8542 0,1.143 -0.7874,1.8542 -0.7874,0.6858 -2.0066,0.6858 z"
         style="font-style:normal;font-variant:normal;font-weight:900;font-stretch:normal;font-size:25.39999962px;font-family:'Source Code Pro';-inkscape-font-specification:'Source Code Pro Heavy';fill:#000000;stroke-width:0.57323968"
         id="path2571" />
    </g>
    <g
       aria-label="S"
       transform="matrix(1.0137903,0,0,0.99372236,-25.179718,31.941926)"
       style="font-style:normal;font-variant:normal;font-weight:900;font-stretch:normal;font-size:25.39999962px;line-height:1.25;font-family:'Source Code Pro';-inkscape-font-specification:'Source Code Pro Heavy';letter-spacing:0px;word-spacing:0px;fill:#000000;fill-opacity:1;stroke:none;stroke-width:0.57323968"
       id="text2512-5-5-7">
      <path
         inkscape:connector-curvature="0"
         d="m 63.289003,235.45855 q -1.6256,0 -3.3274,-0.5588 -1.6764,-0.5842 -3.0734,-1.8034 l 2.4892,-2.9972 q 0.9398,0.7112 2.0066,1.1684 1.0668,0.4318 2.2098,0.4318 0.9906,0 1.397,-0.2794 0.4318,-0.2794 0.4318,-0.6858 0,-0.3556 -0.1778,-0.5842 -0.1524,-0.254 -0.4572,-0.4318 -0.3048,-0.2032 -0.762,-0.381 -0.4318,-0.1778 -0.9906,-0.4064 l -2.0574,-0.8636 q -0.7112,-0.254 -1.3462,-0.6604 -0.635,-0.4318 -1.1176,-0.9906 -0.4572,-0.5842 -0.7366,-1.3208 -0.2794,-0.7366 -0.2794,-1.6256 0,-1.0668 0.4572,-1.9812 0.4572,-0.9398 1.27,-1.6256 0.8382,-0.7112 1.9812,-1.1176 1.1684,-0.4064 2.5908,-0.4064 1.4732,0 2.9464,0.5334 1.4732,0.5334 2.6924,1.6764 l -2.1844,2.7432 q -0.889,-0.5842 -1.7272,-0.889 -0.8128,-0.3048 -1.9812,-0.3048 -0.7366,0 -1.1938,0.2794 -0.4318,0.254 -0.4318,0.8382 0,0.2794 0.1778,0.508 0.1778,0.2032 0.508,0.381 0.3302,0.1778 0.8128,0.3556 0.4826,0.1778 1.0922,0.4064 l 1.905,0.7874 q 1.6764,0.6096 2.5654,1.7018 0.9144,1.0922 0.9144,2.8194 0,1.0414 -0.4318,2.0066 -0.4318,0.9652 -1.27,1.7018 -0.8382,0.7112 -2.0828,1.143 -1.2192,0.4318 -2.8194,0.4318 z"
         style="font-style:normal;font-variant:normal;font-weight:900;font-stretch:normal;font-size:25.39999962px;font-family:'Source Code Pro';-inkscape-font-specification:'Source Code Pro Heavy';fill:#000000;stroke-width:0.57323968"
         id="path2568" />
    </g>
    <g
       id="g855"
       style="fill:#666666">
      <circle
         r="1.8898809"
         cy="270.54169"
         cx="26.55283"
         id="path844"
         style="fill:#666666;fill-opacity:1;stroke-width:0.18898809" />
      <rect
         y="269.78571"
         x="3.3072917"
         height="1.4174107"
         width="20.977676"
         id="rect846"
         style="fill:#666666;fill-opacity:1;stroke-width:0.28087032" />
      <rect
         y="269.83292"
         x="28.78289"
         height="1.4174107"
         width="20.977676"
         id="rect846-6"
         style="fill:#666666;fill-opacity:1;stroke-width:0.28087035" />
      <rect
         transform="rotate(-90)"
         y="25.773268"
         x="-293.81555"
         height="1.4174107"
         width="20.977676"
         id="rect846-9"
         style="fill:#666666;fill-opacity:1;stroke-width:0.28087035" />
      <rect
         transform="rotate(-90)"
         y="25.820478"
         x="-268.33994"
         height="1.4174107"
         width="20.977676"
         id="rect846-6-3"
         style="fill:#666666;fill-opacity:1;stroke-width:0.28087035" />
    </g>
  </g>
</svg>
